<svg width="24" height="24" viewBox="0 0 24 24" fill="none" xmlns="http://www.w3.org/2000/svg">
<path d="M4.17157 17.8284C3.42143 17.0783 3 16.0609 3 15C2.99995 14.0919 3.30881 13.2109 3.87581 12.5016C4.44281 11.7923 5.23422 11.297 6.12 11.097C5.96791 10.4495 5.94648 9.77819 6.05696 9.12231C6.16745 8.46643 6.40763 7.83918 6.76345 7.27724C7.11927 6.71531 7.58359 6.22998 8.12924 5.84965C8.6749 5.46933 9.29092 5.20164 9.94127 5.06226C10.5916 4.92288 11.2632 4.91461 11.9168 5.03792C12.5704 5.16123 13.1928 5.41365 13.7477 5.78041C14.3026 6.14717 14.7787 6.62091 15.1483 7.17391C15.5178 7.7269 15.7734 8.34805 15.9 9.00101C16.5607 8.98779 17.2174 9.10567 17.8323 9.34783C18.4471 9.58999 19.0079 9.95163 19.4821 10.4118C19.9563 10.872 20.3346 11.4217 20.5951 12.029C20.8556 12.6363 20.9931 13.2892 20.9997 13.95C21.0064 14.6108 20.8819 15.2663 20.6336 15.8787C20.3853 16.4911 20.0181 17.0482 19.5532 17.5178C19.0882 17.9874 18.5348 18.3602 17.925 18.6146C17.3151 18.869 16.6608 19 16 19H7C5.93913 19 4.92172 18.5786 4.17157 17.8284Z" stroke="white" stroke-width="2" stroke-linecap="round" stroke-linejoin="round"/>
</svg>
