<svg width="24" height="24" viewBox="0 0 24 24" fill="none" xmlns="http://www.w3.org/2000/svg">
<path d="M7.00001 16C6.01503 16.0011 5.06427 15.6387 4.32988 14.9823C3.5955 14.3259 3.12913 13.4216 3.02012 12.4427C2.91112 11.4637 3.16714 10.479 3.73915 9.67711C4.31115 8.87523 5.15891 8.3126 6.12001 8.097C5.84193 6.80009 6.09044 5.44583 6.81086 4.33215C7.53128 3.21846 8.6646 2.43658 9.96151 2.1585C11.2584 1.88042 12.6127 2.12892 13.7264 2.84934C14.84 3.56976 15.6219 4.70309 15.9 6H16C17.24 5.99875 18.4361 6.45828 19.3563 7.28937C20.2765 8.12046 20.8551 9.26383 20.9797 10.4975C21.1043 11.7312 20.7661 12.9671 20.0307 13.9655C19.2953 14.9638 18.2152 15.6533 17 15.9M9.00001 19L12 22M12 22L15 19M12 22V10" stroke="white" stroke-width="2" stroke-linecap="round" stroke-linejoin="round"/>
</svg>
