<svg width="24" height="24" viewBox="0 0 24 24" fill="none" xmlns="http://www.w3.org/2000/svg">
<path d="M3.3425 7.77789C3.56865 7.23192 3.90012 6.73584 4.31799 6.31798C4.73586 5.90011 5.23194 5.56864 5.7779 5.34249C6.32387 5.11634 6.90904 4.99994 7.49999 4.99994C8.09095 4.99994 8.67611 5.11634 9.22208 5.34249C9.76805 5.56864 10.2641 5.90011 10.682 6.31798L12 7.63598L13.318 6.31798C14.1619 5.47406 15.3065 4.99995 16.5 4.99995C17.6935 4.99995 18.8381 5.47406 19.682 6.31798C20.5259 7.1619 21 8.3065 21 9.49998C21 10.6935 20.5259 11.8381 19.682 12.682L12 20.364L4.31799 12.682C3.90012 12.2641 3.56865 11.768 3.3425 11.2221C3.11635 10.6761 2.99995 10.0909 2.99995 9.49998C2.99995 8.90902 3.11635 8.32386 3.3425 7.77789Z" stroke="white" stroke-width="2" stroke-linecap="round" stroke-linejoin="round"/>
</svg>
