<svg width="24" height="24" viewBox="0 0 24 24" fill="none" xmlns="http://www.w3.org/2000/svg">
<path d="M13.828 10.172C13.0779 9.4221 12.0607 9.00084 11 9.00084C9.93935 9.00084 8.92211 9.4221 8.172 10.172L4.172 14.172C3.78996 14.541 3.48523 14.9823 3.2756 15.4704C3.06596 15.9584 2.95562 16.4833 2.951 17.0144C2.94639 17.5455 3.04759 18.0722 3.24872 18.5638C3.44984 19.0554 3.74685 19.502 4.12242 19.8776C4.49799 20.2531 4.9446 20.5501 5.43619 20.7513C5.92777 20.9524 6.45449 21.0536 6.98561 21.049C7.51673 21.0444 8.04161 20.934 8.52962 20.7244C9.01764 20.5148 9.45902 20.21 9.828 19.828L10.93 18.727M10.172 13.828C10.9221 14.5779 11.9393 14.9991 13 14.9991C14.0607 14.9991 15.0779 14.5779 15.828 13.828L19.828 9.82798C20.5566 9.07357 20.9598 8.06316 20.9507 7.01438C20.9416 5.96559 20.5209 4.96234 19.7793 4.22071C19.0376 3.47907 18.0344 3.0584 16.9856 3.04928C15.9368 3.04017 14.9264 3.44335 14.172 4.17198L13.072 5.27198" stroke="white" stroke-width="2" stroke-linecap="round" stroke-linejoin="round"/>
</svg>
