<svg width="24" height="24" viewBox="0 0 24 24" fill="none" xmlns="http://www.w3.org/2000/svg">
<path d="M15.172 6.99998L8.58599 13.586C8.39497 13.7705 8.2426 13.9912 8.13779 14.2352C8.03297 14.4792 7.9778 14.7416 7.97549 15.0072C7.97318 15.2727 8.02378 15.5361 8.12435 15.7819C8.22491 16.0277 8.37341 16.251 8.5612 16.4388C8.74898 16.6266 8.97229 16.7751 9.21808 16.8756C9.46387 16.9762 9.72723 17.0268 9.99279 17.0245C10.2584 17.0222 10.5208 16.967 10.7648 16.8622C11.0088 16.7574 11.2295 16.605 11.414 16.414L17.828 9.82798C18.5566 9.07357 18.9598 8.06316 18.9507 7.01438C18.9416 5.96559 18.5209 4.96234 17.7793 4.22071C17.0376 3.47907 16.0344 3.0584 14.9856 3.04928C13.9368 3.04017 12.9264 3.44335 12.172 4.17198L5.75699 10.757C4.63168 11.8823 3.99948 13.4085 3.99948 15C3.99948 16.5914 4.63168 18.1177 5.75699 19.243C6.8823 20.3683 8.40856 21.0005 9.99999 21.0005C11.5914 21.0005 13.1177 20.3683 14.243 19.243L20.5 13" stroke="white" stroke-width="2" stroke-linecap="round" stroke-linejoin="round"/>
</svg>
