<svg width="24" height="24" viewBox="0 0 24 24" fill="none" xmlns="http://www.w3.org/2000/svg">
<path d="M14.121 14.121L19 19M12 12L19 5.00002M12 12L9.121 14.879M12 12L9.121 9.12102M9.121 14.879C8.55834 14.3164 7.79522 14.0003 6.9995 14.0003C6.20378 14.0003 5.44066 14.3164 4.878 14.879C4.31534 15.4417 3.99924 16.2048 3.99924 17.0005C3.99924 17.7962 4.31534 18.5594 4.878 19.122C5.44066 19.6847 6.20378 20.0008 6.9995 20.0008C7.79522 20.0008 8.55834 19.6847 9.121 19.122C9.68366 18.5594 9.99975 17.7962 9.99975 17.0005C9.99975 16.2048 9.68366 15.4417 9.121 14.879ZM9.121 9.12102C9.68366 8.55837 9.99975 7.79524 9.99975 6.99952C9.99975 6.2038 9.68366 5.44068 9.121 4.87802C8.55834 4.31536 7.79522 3.99927 6.9995 3.99927C6.20378 3.99927 5.44066 4.31536 4.878 4.87802C4.31534 5.44068 3.99924 6.2038 3.99924 6.99952C3.99924 7.79524 4.31534 8.55837 4.878 9.12102C5.44066 9.68368 6.20378 9.99978 6.9995 9.99978C7.79522 9.99978 8.55834 9.68368 9.121 9.12102Z" stroke="white" stroke-width="2" stroke-linecap="round" stroke-linejoin="round"/>
</svg>
