<svg width="24" height="24" viewBox="0 0 24 24" fill="none" xmlns="http://www.w3.org/2000/svg">
<path d="M8.68399 13.342C8.88599 12.938 8.99999 12.482 8.99999 12C8.99999 11.518 8.88599 11.062 8.68399 10.658M8.68399 13.342C8.38169 13.9464 7.88419 14.431 7.27208 14.7174C6.65997 15.0037 5.96912 15.075 5.31143 14.9197C4.65374 14.7644 4.06776 14.3916 3.6484 13.8617C3.22904 13.3317 3.00089 12.6758 3.00089 12C3.00089 11.3242 3.22904 10.6682 3.6484 10.1383C4.06776 9.60841 4.65374 9.2356 5.31143 9.08029C5.96912 8.92499 6.65997 8.99628 7.27208 9.28263C7.88419 9.56898 8.38169 10.0536 8.68399 10.658M8.68399 13.342L15.316 16.658M8.68399 10.658L15.316 7.34199M15.316 16.658C14.9601 17.3698 14.9015 18.1939 15.1532 18.9489C15.4048 19.704 15.9461 20.3281 16.658 20.684C17.3698 21.0399 18.1939 21.0985 18.9489 20.8468C19.7039 20.5951 20.3281 20.0538 20.684 19.342C21.0399 18.6302 21.0985 17.8061 20.8468 17.0511C20.5951 16.296 20.0538 15.6719 19.342 15.316C18.9895 15.1398 18.6058 15.0347 18.2127 15.0067C17.8196 14.9788 17.4249 15.0286 17.0511 15.1532C16.296 15.4049 15.6719 15.9462 15.316 16.658ZM15.316 7.34199C15.4922 7.69439 15.7361 8.00863 16.0338 8.26677C16.3315 8.5249 16.6771 8.72188 17.0509 8.84645C17.4247 8.97102 17.8194 9.02074 18.2124 8.99278C18.6054 8.96482 18.9891 8.85973 19.3415 8.68349C19.6939 8.50726 20.0081 8.26334 20.2663 7.96566C20.5244 7.66798 20.7214 7.32238 20.8459 6.94858C20.9705 6.57477 21.0202 6.1801 20.9923 5.78708C20.9643 5.39406 20.8592 5.01039 20.683 4.65799C20.3271 3.94628 19.703 3.40511 18.9481 3.15353C18.1931 2.90195 17.3692 2.96057 16.6575 3.31649C15.9458 3.67241 15.4046 4.29648 15.153 5.05141C14.9014 5.80634 14.9601 6.63028 15.316 7.34199Z" stroke="white" stroke-width="2" stroke-linecap="round" stroke-linejoin="round"/>
</svg>
