<svg width="24" height="24" viewBox="0 0 24 24" fill="none" xmlns="http://www.w3.org/2000/svg">
<path d="M12.951 2.92696C12.652 2.00596 11.349 2.00596 11.049 2.92696L9.53 7.60096C9.46458 7.80161 9.33735 7.97641 9.16653 8.10035C8.99571 8.22429 8.79005 8.29101 8.579 8.29096H3.665C2.697 8.29096 2.293 9.53096 3.077 10.101L7.053 12.989C7.2238 13.1131 7.3509 13.2882 7.41611 13.489C7.48132 13.6898 7.48128 13.9061 7.416 14.107L5.898 18.781C5.598 19.702 6.653 20.469 7.436 19.899L11.412 17.011C11.5829 16.8867 11.7887 16.8198 12 16.8198C12.2113 16.8198 12.4171 16.8867 12.588 17.011L16.564 19.899C17.347 20.469 18.402 19.703 18.102 18.781L16.584 14.107C16.5187 13.9061 16.5187 13.6898 16.5839 13.489C16.6491 13.2882 16.7762 13.1131 16.947 12.989L20.923 10.101C21.706 9.53096 21.304 8.29096 20.335 8.29096H15.42C15.2091 8.2908 15.0037 8.22399 14.8331 8.10006C14.6625 7.97614 14.5354 7.80144 14.47 7.60096L12.951 2.92696Z" stroke="white" stroke-width="2" stroke-linecap="round" stroke-linejoin="round"/>
</svg>
