<svg width="24" height="24" viewBox="0 0 24 24" fill="none" xmlns="http://www.w3.org/2000/svg">
<path d="M5.63599 18.364C4.80025 17.5283 4.1373 16.5361 3.685 15.4442C3.2327 14.3522 2.99991 13.1819 2.99991 12C2.99991 10.8181 3.2327 9.64775 3.685 8.55581C4.1373 7.46387 4.80025 6.47172 5.63599 5.63599M18.364 5.63599C19.1997 6.47172 19.8627 7.46387 20.315 8.55581C20.7673 9.64775 21.0001 10.8181 21.0001 12C21.0001 13.1819 20.7673 14.3522 20.315 15.4442C19.8627 16.5361 19.1997 17.5283 18.364 18.364M8.46399 15.535C7.52663 14.5973 7.00005 13.3258 7.00005 12C7.00005 10.6742 7.52663 9.40262 8.46399 8.46499M15.536 8.46499C16.4733 9.40262 16.9999 10.6742 16.9999 12C16.9999 13.3258 16.4733 14.5973 15.536 15.535M13 12C13 12.2652 12.8946 12.5196 12.7071 12.7071C12.5196 12.8946 12.2652 13 12 13C11.7348 13 11.4804 12.8946 11.2929 12.7071C11.1053 12.5196 11 12.2652 11 12C11 11.7348 11.1053 11.4804 11.2929 11.2929C11.4804 11.1053 11.7348 11 12 11C12.2652 11 12.5196 11.1053 12.7071 11.2929C12.8946 11.4804 13 11.7348 13 12Z" stroke="white" stroke-width="2" stroke-linecap="round" stroke-linejoin="round"/>
</svg>
