<svg width="24" height="24" viewBox="0 0 24 24" fill="none" xmlns="http://www.w3.org/2000/svg">
<path d="M16.999 4L13.239 3.06C13.0804 3.02025 12.9175 3.0001 12.754 3H8.73599C8.36449 3.00001 8.00034 3.10349 7.68436 3.29884C7.36837 3.49419 7.11304 3.77369 6.94699 4.106L3.44699 11.106C3.29462 11.4109 3.22271 11.7497 3.23809 12.0902C3.25347 12.4308 3.35563 12.7617 3.53486 13.0516C3.71409 13.3416 3.96446 13.5809 4.26218 13.7469C4.55991 13.9129 4.89512 14 5.23599 14H9.99999H12M16.999 4L17 13L13.608 18.088C13.211 18.683 13 19.381 13 20.096C13 20.595 12.595 21 12.095 21H11.999C11.4686 21 10.9598 20.7893 10.5848 20.4142C10.2097 20.0391 9.99899 19.5304 9.99899 19V14M16.999 4H19C19.5304 4 20.0391 4.21071 20.4142 4.58579C20.7893 4.96086 21 5.46957 21 6V12C21 12.5304 20.7893 13.0391 20.4142 13.4142C20.0391 13.7893 19.5304 14 19 14H16.5" stroke="white" stroke-width="2" stroke-linecap="round" stroke-linejoin="round"/>
</svg>
