<svg width="20" height="20" viewBox="0 0 20 20" fill="none" xmlns="http://www.w3.org/2000/svg">
<path d="M4.99997 4C4.99997 3.73478 4.89462 3.48043 4.70708 3.29289C4.51954 3.10536 4.26519 3 3.99997 3C3.73476 3 3.4804 3.10536 3.29287 3.29289C3.10533 3.48043 2.99997 3.73478 2.99997 4V11.268C2.69596 11.4435 2.44351 11.696 2.26798 12C2.09246 12.3041 2.00006 12.6489 2.00006 13C2.00006 13.3511 2.09246 13.6959 2.26798 14C2.44351 14.304 2.69596 14.5565 2.99997 14.732V16C2.99997 16.2652 3.10533 16.5196 3.29287 16.7071C3.4804 16.8946 3.73476 17 3.99997 17C4.26519 17 4.51954 16.8946 4.70708 16.7071C4.89462 16.5196 4.99997 16.2652 4.99997 16V14.732C5.30399 14.5565 5.55644 14.304 5.73196 14C5.90748 13.6959 5.99988 13.3511 5.99988 13C5.99988 12.6489 5.90748 12.3041 5.73196 12C5.55644 11.696 5.30399 11.4435 4.99997 11.268V4ZM11 4C11 3.73478 10.8946 3.48043 10.7071 3.29289C10.5195 3.10536 10.2652 3 9.99997 3C9.73476 3 9.4804 3.10536 9.29287 3.29289C9.10533 3.48043 8.99997 3.73478 8.99997 4V5.268C8.69596 5.44354 8.44351 5.69602 8.26799 6.00004C8.09246 6.30407 8.00006 6.64894 8.00006 7C8.00006 7.35106 8.09246 7.69593 8.26799 7.99996C8.44351 8.30398 8.69596 8.55646 8.99997 8.732V16C8.99997 16.2652 9.10533 16.5196 9.29287 16.7071C9.4804 16.8946 9.73476 17 9.99997 17C10.2652 17 10.5195 16.8946 10.7071 16.7071C10.8946 16.5196 11 16.2652 11 16V8.732C11.304 8.55646 11.5564 8.30398 11.732 7.99996C11.9075 7.69593 11.9999 7.35106 11.9999 7C11.9999 6.64894 11.9075 6.30407 11.732 6.00004C11.5564 5.69602 11.304 5.44354 11 5.268V4ZM16 3C16.2652 3 16.5195 3.10536 16.7071 3.29289C16.8946 3.48043 17 3.73478 17 4V11.268C17.304 11.4435 17.5564 11.696 17.732 12C17.9075 12.3041 17.9999 12.6489 17.9999 13C17.9999 13.3511 17.9075 13.6959 17.732 14C17.5564 14.304 17.304 14.5565 17 14.732V16C17 16.2652 16.8946 16.5196 16.7071 16.7071C16.5195 16.8946 16.2652 17 16 17C15.7348 17 15.4804 16.8946 15.2929 16.7071C15.1053 16.5196 15 16.2652 15 16V14.732C14.696 14.5565 14.4435 14.304 14.268 14C14.0925 13.6959 14.0001 13.3511 14.0001 13C14.0001 12.6489 14.0925 12.3041 14.268 12C14.4435 11.696 14.696 11.4435 15 11.268V4C15 3.73478 15.1053 3.48043 15.2929 3.29289C15.4804 3.10536 15.7348 3 16 3Z" fill="white"/>
</svg>
