<svg width="20" height="20" viewBox="0 0 20 20" fill="none" xmlns="http://www.w3.org/2000/svg">
<path fill-rule="evenodd" clip-rule="evenodd" d="M7.70703 14.707C7.5195 14.8945 7.26519 14.9998 7.00003 14.9998C6.73487 14.9998 6.48056 14.8945 6.29303 14.707L2.29303 10.707C2.10556 10.5195 2.00024 10.2652 2.00024 10C2.00024 9.73483 2.10556 9.48052 2.29303 9.293L6.29303 5.293C6.48163 5.11084 6.73423 5.01004 6.99643 5.01232C7.25863 5.0146 7.50944 5.11977 7.69485 5.30518C7.88026 5.49058 7.98543 5.7414 7.9877 6.00359C7.98998 6.26579 7.88919 6.51839 7.70703 6.707L5.41403 9H17C17.2652 9 17.5196 9.10535 17.7071 9.29289C17.8947 9.48042 18 9.73478 18 10C18 10.2652 17.8947 10.5196 17.7071 10.7071C17.5196 10.8946 17.2652 11 17 11H5.41403L7.70703 13.293C7.8945 13.4805 7.99982 13.7348 7.99982 14C7.99982 14.2652 7.8945 14.5195 7.70703 14.707Z" fill="white"/>
</svg>
