<svg width="20" height="20" viewBox="0 0 20 20" fill="none" xmlns="http://www.w3.org/2000/svg">
<path fill-rule="evenodd" clip-rule="evenodd" d="M5.29303 7.707C5.10556 7.51947 5.00024 7.26516 5.00024 7C5.00024 6.73484 5.10556 6.48053 5.29303 6.293L9.29303 2.293C9.48056 2.10553 9.73487 2.00021 10 2.00021C10.2652 2.00021 10.5195 2.10553 10.707 2.293L14.707 6.293C14.8892 6.4816 14.99 6.7342 14.9877 6.9964C14.9854 7.2586 14.8803 7.50941 14.6948 7.69482C14.5094 7.88023 14.2586 7.9854 13.9964 7.98767C13.7342 7.98995 13.4816 7.88916 13.293 7.707L11 5.414V17C11 17.2652 10.8947 17.5196 10.7071 17.7071C10.5196 17.8946 10.2652 18 10 18C9.73481 18 9.48046 17.8946 9.29292 17.7071C9.10539 17.5196 9.00003 17.2652 9.00003 17V5.414L6.70703 7.707C6.5195 7.89447 6.26519 7.99979 6.00003 7.99979C5.73487 7.99979 5.48056 7.89447 5.29303 7.707Z" fill="white"/>
</svg>
