<svg width="20" height="20" viewBox="0 0 20 20" fill="none" xmlns="http://www.w3.org/2000/svg">
<path fill-rule="evenodd" clip-rule="evenodd" d="M3.29303 9.707C3.10556 9.51947 3.00024 9.26516 3.00024 9C3.00024 8.73484 3.10556 8.48053 3.29303 8.293L9.29303 2.293C9.48056 2.10553 9.73487 2.00021 10 2.00021C10.2652 2.00021 10.5195 2.10553 10.707 2.293L16.707 8.293C16.8892 8.4816 16.99 8.7342 16.9877 8.9964C16.9854 9.2586 16.8803 9.50941 16.6948 9.69482C16.5094 9.88023 16.2586 9.9854 15.9964 9.98767C15.7342 9.98995 15.4816 9.88916 15.293 9.707L11 5.414V17C11 17.2652 10.8947 17.5196 10.7071 17.7071C10.5196 17.8946 10.2652 18 10 18C9.73481 18 9.48046 17.8946 9.29292 17.7071C9.10539 17.5196 9.00003 17.2652 9.00003 17V5.414L4.70703 9.707C4.5195 9.89447 4.26519 9.99979 4.00003 9.99979C3.73487 9.99979 3.48056 9.89447 3.29303 9.707Z" fill="white"/>
</svg>
