<svg width="20" height="20" viewBox="0 0 20 20" fill="none" xmlns="http://www.w3.org/2000/svg">
<path fill-rule="evenodd" clip-rule="evenodd" d="M14.707 12.293C14.8945 12.4805 14.9998 12.7348 14.9998 13C14.9998 13.2652 14.8945 13.5195 14.707 13.707L10.707 17.707C10.5195 17.8945 10.2652 17.9998 10 17.9998C9.73486 17.9998 9.48055 17.8945 9.29302 17.707L5.29302 13.707C5.19751 13.6148 5.12133 13.5044 5.06892 13.3824C5.01651 13.2604 4.98892 13.1292 4.98777 12.9964C4.98662 12.8636 5.01192 12.7319 5.0622 12.609C5.11248 12.4861 5.18673 12.3745 5.28062 12.2806C5.37452 12.1867 5.48617 12.1125 5.60907 12.0622C5.73196 12.0119 5.86364 11.9866 5.99642 11.9877C6.1292 11.9889 6.26042 12.0165 6.38242 12.0689C6.50443 12.1213 6.61477 12.1975 6.70702 12.293L9.00002 14.586V3C9.00002 2.73478 9.10538 2.48043 9.29291 2.29289C9.48045 2.10536 9.7348 2 10 2C10.2652 2 10.5196 2.10536 10.7071 2.29289C10.8947 2.48043 11 2.73478 11 3V14.586L13.293 12.293C13.4805 12.1055 13.7349 12.0002 14 12.0002C14.2652 12.0002 14.5195 12.1055 14.707 12.293Z" fill="white"/>
</svg>
