<svg width="20" height="20" viewBox="0 0 20 20" fill="none" xmlns="http://www.w3.org/2000/svg">
<path fill-rule="evenodd" clip-rule="evenodd" d="M6.41421 5L8.70711 7.29289C9.09763 7.68342 9.09763 8.31658 8.70711 8.70711C8.31658 9.09763 7.68342 9.09763 7.29289 8.70711L5 6.41421V8C5 8.55228 4.55228 9 4 9C3.44772 9 3 8.55228 3 8V4.00017C3 3.74425 3.09763 3.48816 3.29289 3.29289C3.38877 3.19702 3.49927 3.12468 3.61722 3.07588C3.73512 3.02699 3.86441 3 4 3H8C8.55228 3 9 3.44772 9 4C9 4.55228 8.55228 5 8 5H6.41421ZM12 5C11.4477 5 11 4.55228 11 4C11 3.44772 11.4477 3 12 3H15.9998C16.1354 3 16.2649 3.02699 16.3828 3.07588C16.4999 3.12432 16.6096 3.19595 16.705 3.29078L16.7092 3.29502C16.804 3.3904 16.8757 3.50014 16.9241 3.61722C16.9743 3.73854 16.9996 3.86774 17 3.997L17 4V8C17 8.55228 16.5523 9 16 9C15.4477 9 15 8.55228 15 8V6.41421L12.7071 8.70711C12.3166 9.09763 11.6834 9.09763 11.2929 8.70711C10.9024 8.31658 10.9024 7.68342 11.2929 7.29289L13.5858 5H12ZM3 12C3 11.4477 3.44772 11 4 11C4.55228 11 5 11.4477 5 12V13.5858L7.29289 11.2929C7.68342 10.9024 8.31658 10.9024 8.70711 11.2929C9.09763 11.6834 9.09763 12.3166 8.70711 12.7071L6.41421 15H8C8.55228 15 9 15.4477 9 16C9 16.5523 8.55228 17 8 17H4.00069L3.997 17C3.8625 16.9996 3.73425 16.9727 3.61722 16.9241C3.49593 16.8738 3.38669 16.8004 3.29502 16.7092L3.29078 16.705C3.19595 16.6096 3.12432 16.4999 3.07588 16.3828C3.02699 16.2649 3 16.1356 3 16V12Z" fill="white"/>
<path d="M12 17C11.4477 17 11 16.5523 11 16C11 15.4477 11.4477 15 12 15H13.5858L11.2929 12.7071C10.9024 12.3166 10.9024 11.6834 11.2929 11.2929C11.6834 10.9024 12.3166 10.9024 12.7071 11.2929L15 13.5858V12C15 11.4477 15.4477 11 16 11C16.5523 11 17 11.4477 17 12V15.9993L17 16.003C16.9996 16.1375 16.9727 16.2657 16.9241 16.3828C16.8738 16.5041 16.8004 16.6133 16.7092 16.705L16.705 16.7092C16.6096 16.804 16.4999 16.8757 16.3828 16.9241C16.2649 16.973 16.1356 17 16 17H12Z" fill="white"/>
</svg>
