<svg width="20" height="20" viewBox="0 0 20 20" fill="none" xmlns="http://www.w3.org/2000/svg">
<path fill-rule="evenodd" clip-rule="evenodd" d="M14.243 5.75699C13.442 4.95642 12.4307 4.39891 11.3261 4.14891C10.2215 3.89891 9.06874 3.96664 8.00103 4.34426C6.93332 4.72188 5.99429 5.39398 5.29249 6.28285C4.5907 7.17171 4.1548 8.24105 4.03519 9.36724C3.91559 10.4934 4.11716 11.6305 4.6166 12.6469C5.11604 13.6634 5.89296 14.5177 6.85754 15.1112C7.82212 15.7046 8.93496 16.013 10.0674 16.0005C11.1999 15.9881 12.3057 15.6555 13.257 15.041C13.3671 14.9655 13.4913 14.9128 13.6221 14.886C13.7529 14.8593 13.8878 14.859 14.0187 14.8852C14.1496 14.9114 14.274 14.9635 14.3844 15.0386C14.4949 15.1136 14.5892 15.21 14.6618 15.3221C14.7344 15.4341 14.7838 15.5596 14.8071 15.6911C14.8305 15.8225 14.8272 15.9574 14.7976 16.0876C14.768 16.2178 14.7126 16.3407 14.6347 16.4492C14.5568 16.5576 14.4579 16.6494 14.344 16.719C12.8507 17.6846 11.0783 18.1252 9.30667 17.971C7.53508 17.8169 5.86533 17.0769 4.56121 15.8679C3.2571 14.659 2.39298 13.05 2.10535 11.2951C1.81772 9.54021 2.12299 7.73952 2.97293 6.1775C3.82288 4.61548 5.16903 3.38117 6.79874 2.66957C8.42844 1.95797 10.2488 1.80965 11.9722 2.24804C13.6956 2.68643 15.2238 3.68654 16.3154 5.09036C17.407 6.49419 17.9998 8.22171 18 10C18.0002 10.5572 17.8452 11.1035 17.5524 11.5776C17.2595 12.0516 16.8405 12.4348 16.3421 12.6841C15.8437 12.9333 15.2858 13.0389 14.7308 12.9889C14.1759 12.9389 13.6458 12.7353 13.2 12.401C12.6302 13.1608 11.8085 13.6931 10.8822 13.9025C9.95579 14.112 8.98511 13.985 8.14381 13.5442C7.3025 13.1035 6.64547 12.3778 6.29028 11.4969C5.93508 10.6161 5.90489 9.63762 6.20512 8.73656C6.50535 7.8355 7.1164 7.07067 7.92893 6.57891C8.74147 6.08716 9.70248 5.90057 10.64 6.05253C11.5775 6.20448 12.4304 6.68508 13.046 7.40831C13.6616 8.13155 13.9998 9.05024 14 10C14 10.2652 14.1054 10.5196 14.2929 10.7071C14.4804 10.8946 14.7348 11 15 11C15.2652 11 15.5196 10.8946 15.7071 10.7071C15.8947 10.5196 16 10.2652 16 10C16 8.463 15.414 6.93 14.243 5.75699ZM12 10C12 9.46956 11.7893 8.96086 11.4142 8.58578C11.0392 8.21071 10.5304 8 10 8C9.46958 8 8.96087 8.21071 8.5858 8.58578C8.21073 8.96086 8.00001 9.46956 8.00001 10C8.00001 10.5304 8.21073 11.0391 8.5858 11.4142C8.96087 11.7893 9.46958 12 10 12C10.5304 12 11.0392 11.7893 11.4142 11.4142C11.7893 11.0391 12 10.5304 12 10Z" fill="white"/>
</svg>
