<svg width="20" height="20" viewBox="0 0 20 20" fill="none" xmlns="http://www.w3.org/2000/svg">
<path d="M9 4.80399C7.90971 4.27315 6.71265 3.99817 5.5 3.99999C4.245 3.99999 3.057 4.28999 2 4.80399V14.804C3.0903 14.2732 4.28736 13.9982 5.5 14C7.169 14 8.718 14.51 10 15.385C11.3261 14.4802 12.8947 13.9974 14.5 14C15.755 14 16.943 14.29 18 14.804V4.80399C16.9097 4.27315 15.7126 3.99817 14.5 3.99999C13.245 3.99999 12.057 4.28999 11 4.80399V12C11 12.2652 10.8946 12.5196 10.7071 12.7071C10.5196 12.8946 10.2652 13 10 13C9.73478 13 9.48043 12.8946 9.29289 12.7071C9.10536 12.5196 9 12.2652 9 12V4.80399Z" fill="white"/>
</svg>
