<svg width="20" height="20" viewBox="0 0 20 20" fill="none" xmlns="http://www.w3.org/2000/svg">
<path fill-rule="evenodd" clip-rule="evenodd" d="M16.707 5.293C16.8945 5.48053 16.9998 5.73484 16.9998 6C16.9998 6.26516 16.8945 6.51947 16.707 6.707L8.70704 14.707C8.51951 14.8945 8.26521 14.9998 8.00004 14.9998C7.73488 14.9998 7.48057 14.8945 7.29304 14.707L3.29304 10.707C3.11088 10.5184 3.01009 10.2658 3.01237 10.0036C3.01465 9.7414 3.11981 9.49059 3.30522 9.30518C3.49063 9.11977 3.74144 9.0146 4.00364 9.01233C4.26584 9.01005 4.51844 9.11084 4.70704 9.293L8.00004 12.586L15.293 5.293C15.4806 5.10553 15.7349 5.00021 16 5.00021C16.2652 5.00021 16.5195 5.10553 16.707 5.293Z" fill="white"/>
</svg>
