<svg width="20" height="20" viewBox="0 0 20 20" fill="none" xmlns="http://www.w3.org/2000/svg">
<path fill-rule="evenodd" clip-rule="evenodd" d="M4.29303 15.707C4.10556 15.5195 4.00024 15.2652 4.00024 15C4.00024 14.7348 4.10556 14.4805 4.29303 14.293L9.29303 9.293C9.48056 9.10553 9.73487 9.00021 10 9.00021C10.2652 9.00021 10.5195 9.10553 10.707 9.293L15.707 14.293C15.8892 14.4816 15.99 14.7342 15.9877 14.9964C15.9854 15.2586 15.8803 15.5094 15.6948 15.6948C15.5094 15.8802 15.2586 15.9854 14.9964 15.9877C14.7342 15.99 14.4816 15.8892 14.293 15.707L10 11.414L5.70703 15.707C5.5195 15.8945 5.26519 15.9998 5.00003 15.9998C4.73487 15.9998 4.48056 15.8945 4.29303 15.707ZM4.29303 9.707C4.10556 9.51947 4.00024 9.26516 4.00024 9C4.00024 8.73484 4.10556 8.48053 4.29303 8.293L9.29303 3.293C9.48056 3.10553 9.73487 3.00021 10 3.00021C10.2652 3.00021 10.5195 3.10553 10.707 3.293L15.707 8.293C15.8892 8.4816 15.99 8.7342 15.9877 8.9964C15.9854 9.2586 15.8803 9.50941 15.6948 9.69482C15.5094 9.88023 15.2586 9.9854 14.9964 9.98767C14.7342 9.98995 14.4816 9.88916 14.293 9.707L10 5.414L5.70703 9.707C5.5195 9.89447 5.26519 9.99979 5.00003 9.99979C4.73487 9.99979 4.48056 9.89447 4.29303 9.707Z" fill="white"/>
</svg>
