<svg width="20" height="20" viewBox="0 0 20 20" fill="none" xmlns="http://www.w3.org/2000/svg">
<path fill-rule="evenodd" clip-rule="evenodd" d="M12.707 5.293C12.8945 5.48053 12.9998 5.73484 12.9998 6C12.9998 6.26516 12.8945 6.51947 12.707 6.707L9.41403 10L12.707 13.293C12.8892 13.4816 12.99 13.7342 12.9877 13.9964C12.9854 14.2586 12.8803 14.5094 12.6948 14.6948C12.5094 14.8802 12.2586 14.9854 11.9964 14.9877C11.7342 14.99 11.4816 14.8892 11.293 14.707L7.29303 10.707C7.10556 10.5195 7.00024 10.2652 7.00024 10C7.00024 9.73484 7.10556 9.48053 7.29303 9.293L11.293 5.293C11.4806 5.10553 11.7349 5.00021 12 5.00021C12.2652 5.00021 12.5195 5.10553 12.707 5.293Z" fill="white"/>
</svg>
