<svg width="20" height="20" viewBox="0 0 20 20" fill="none" xmlns="http://www.w3.org/2000/svg">
<path fill-rule="evenodd" clip-rule="evenodd" d="M14.707 12.707C14.5195 12.8945 14.2652 12.9998 14 12.9998C13.7349 12.9998 13.4806 12.8945 13.293 12.707L10 9.414L6.70704 12.707C6.51844 12.8892 6.26584 12.99 6.00364 12.9877C5.74144 12.9854 5.49063 12.8802 5.30522 12.6948C5.11981 12.5094 5.01465 12.2586 5.01237 11.9964C5.01009 11.7342 5.11088 11.4816 5.29304 11.293L9.29304 7.293C9.48057 7.10553 9.73488 7.00021 10 7.00021C10.2652 7.00021 10.5195 7.10553 10.707 7.293L14.707 11.293C14.8945 11.4805 14.9998 11.7348 14.9998 12C14.9998 12.2652 14.8945 12.5195 14.707 12.707Z" fill="white"/>
</svg>
