<svg width="20" height="20" viewBox="0 0 20 20" fill="none" xmlns="http://www.w3.org/2000/svg">
<path fill-rule="evenodd" clip-rule="evenodd" d="M15.707 15.707C15.5195 15.8945 15.2652 15.9998 15 15.9998C14.7349 15.9998 14.4806 15.8945 14.293 15.707L9.29303 10.707C9.10556 10.5195 9.00024 10.2652 9.00024 9.99999C9.00024 9.73483 9.10556 9.48052 9.29303 9.29299L14.293 4.29299C14.3853 4.19748 14.4956 4.1213 14.6176 4.06889C14.7396 4.01648 14.8709 3.98889 15.0036 3.98774C15.1364 3.98659 15.2681 4.01189 15.391 4.06217C15.5139 4.11245 15.6255 4.1867 15.7194 4.28059C15.8133 4.37449 15.8876 4.48614 15.9379 4.60904C15.9881 4.73193 16.0134 4.86361 16.0123 4.99639C16.0111 5.12917 15.9835 5.26039 15.9311 5.38239C15.8787 5.5044 15.8025 5.61474 15.707 5.70699L11.414 9.99999L15.707 14.293C15.8945 14.4805 15.9998 14.7348 15.9998 15C15.9998 15.2652 15.8945 15.5195 15.707 15.707ZM9.70703 15.707C9.5195 15.8945 9.26519 15.9998 9.00003 15.9998C8.73487 15.9998 8.48056 15.8945 8.29303 15.707L3.29303 10.707C3.10556 10.5195 3.00024 10.2652 3.00024 9.99999C3.00024 9.73483 3.10556 9.48052 3.29303 9.29299L8.29303 4.29299C8.48163 4.11083 8.73423 4.01004 8.99643 4.01232C9.25863 4.01459 9.50944 4.11976 9.69485 4.30517C9.88026 4.49058 9.98543 4.74139 9.9877 5.00359C9.98998 5.26579 9.88919 5.51839 9.70703 5.70699L5.41403 9.99999L9.70703 14.293C9.8945 14.4805 9.99982 14.7348 9.99982 15C9.99982 15.2652 9.8945 15.5195 9.70703 15.707Z" fill="white"/>
</svg>
