<svg width="20" height="20" viewBox="0 0 20 20" fill="none" xmlns="http://www.w3.org/2000/svg">
<path fill-rule="evenodd" clip-rule="evenodd" d="M15.707 4.293C15.8945 4.48053 15.9998 4.73484 15.9998 5C15.9998 5.26516 15.8945 5.51947 15.707 5.707L10.707 10.707C10.5195 10.8945 10.2652 10.9998 10 10.9998C9.73486 10.9998 9.48055 10.8945 9.29302 10.707L4.29302 5.707C4.11086 5.5184 4.01007 5.2658 4.01235 5.0036C4.01462 4.7414 4.11979 4.49059 4.3052 4.30518C4.49061 4.11977 4.74142 4.0146 5.00362 4.01233C5.26582 4.01005 5.51842 4.11084 5.70702 4.293L10 8.586L14.293 4.293C14.4805 4.10553 14.7349 4.00021 15 4.00021C15.2652 4.00021 15.5195 4.10553 15.707 4.293ZM15.707 10.293C15.8945 10.4805 15.9998 10.7348 15.9998 11C15.9998 11.2652 15.8945 11.5195 15.707 11.707L10.707 16.707C10.5195 16.8945 10.2652 16.9998 10 16.9998C9.73486 16.9998 9.48055 16.8945 9.29302 16.707L4.29302 11.707C4.19751 11.6148 4.12133 11.5044 4.06892 11.3824C4.01651 11.2604 3.98892 11.1292 3.98777 10.9964C3.98662 10.8636 4.01192 10.7319 4.0622 10.609C4.11248 10.4861 4.18673 10.3745 4.28062 10.2806C4.37452 10.1867 4.48617 10.1125 4.60907 10.0622C4.73196 10.0119 4.86364 9.9866 4.99642 9.98775C5.1292 9.9889 5.26042 10.0165 5.38242 10.0689C5.50443 10.1213 5.61477 10.1975 5.70702 10.293L10 14.586L14.293 10.293C14.4805 10.1055 14.7349 10.0002 15 10.0002C15.2652 10.0002 15.5195 10.1055 15.707 10.293Z" fill="white"/>
</svg>
