<svg width="20" height="20" viewBox="0 0 20 20" fill="none" xmlns="http://www.w3.org/2000/svg">
<path fill-rule="evenodd" clip-rule="evenodd" d="M5.29303 7.29299C5.48056 7.10552 5.73487 7.0002 6.00003 7.0002C6.26519 7.0002 6.5195 7.10552 6.70703 7.29299L10 10.586L13.293 7.29299C13.3853 7.19748 13.4956 7.1213 13.6176 7.06889C13.7396 7.01648 13.8709 6.98889 14.0036 6.98774C14.1364 6.98659 14.2681 7.01189 14.391 7.06217C14.5139 7.11245 14.6255 7.1867 14.7194 7.28059C14.8133 7.37449 14.8876 7.48614 14.9379 7.60904C14.9881 7.73193 15.0134 7.86361 15.0123 7.99639C15.0111 8.12917 14.9835 8.26039 14.9311 8.38239C14.8787 8.5044 14.8025 8.61474 14.707 8.70699L10.707 12.707C10.5195 12.8945 10.2652 12.9998 10 12.9998C9.73487 12.9998 9.48056 12.8945 9.29303 12.707L5.29303 8.70699C5.10556 8.51946 5.00024 8.26515 5.00024 7.99999C5.00024 7.73483 5.10556 7.48052 5.29303 7.29299Z" fill="white"/>
</svg>
