<svg width="20" height="20" viewBox="0 0 20 20" fill="none" xmlns="http://www.w3.org/2000/svg">
<path d="M5.50004 16C4.60457 15.9988 3.7436 15.6545 3.09431 15.0378C2.44502 14.4211 2.0568 13.579 2.00952 12.6848C1.96225 11.7906 2.25952 10.9122 2.84017 10.2305C3.42082 9.54881 4.24068 9.11559 5.13104 9.02C4.86887 7.99189 5.02586 6.90174 5.56747 5.98938C6.10907 5.07702 6.99093 4.41717 8.01904 4.155C9.04715 3.89284 10.1373 4.04982 11.0497 4.59143C11.962 5.13303 12.6219 6.01489 12.884 7.043C13.4955 6.95787 14.1179 6.99945 14.7126 7.16517C15.3073 7.33089 15.8615 7.6172 16.3408 8.00629C16.8201 8.39538 17.2142 8.87892 17.4986 9.42685C17.783 9.97478 17.9517 10.5754 17.994 11.1913C18.0364 11.8071 17.9516 12.4252 17.7448 13.0069C17.5381 13.5886 17.2139 14.1215 16.7924 14.5726C16.3709 15.0236 15.8611 15.3831 15.2947 15.6287C14.7283 15.8742 14.1174 16.0006 13.5 16H5.50004Z" fill="white"/>
</svg>
