<svg width="20" height="20" viewBox="0 0 20 20" fill="none" xmlns="http://www.w3.org/2000/svg">
<path fill-rule="evenodd" clip-rule="evenodd" d="M12.316 3.05101C12.4407 3.09249 12.5559 3.15811 12.6552 3.24413C12.7545 3.33016 12.8358 3.4349 12.8946 3.55237C12.9534 3.66985 12.9885 3.79775 12.9978 3.92878C13.0071 4.05981 12.9906 4.19139 12.949 4.31601L8.94903 16.316C8.86522 16.5677 8.68486 16.7758 8.44763 16.8945C8.2104 17.0132 7.93572 17.0328 7.68403 16.949C7.43234 16.8652 7.22425 16.6848 7.10554 16.4476C6.98683 16.2104 6.96722 15.9357 7.05103 15.684L11.051 3.68401C11.0925 3.55937 11.1581 3.44412 11.2442 3.34485C11.3302 3.24558 11.4349 3.16422 11.5524 3.10544C11.6699 3.04666 11.7978 3.01159 11.9288 3.00226C12.0598 2.99292 12.1914 3.00949 12.316 3.05101ZM5.70703 6.29301C5.8945 6.48054 5.99982 6.73485 5.99982 7.00001C5.99982 7.26518 5.8945 7.51949 5.70703 7.70701L3.41403 10L5.70703 12.293C5.80254 12.3853 5.87872 12.4956 5.93113 12.6176C5.98354 12.7396 6.01113 12.8708 6.01228 13.0036C6.01343 13.1364 5.98813 13.2681 5.93785 13.391C5.88757 13.5139 5.81332 13.6255 5.71943 13.7194C5.62553 13.8133 5.51388 13.8876 5.39098 13.9378C5.26809 13.9881 5.13641 14.0134 5.00363 14.0123C4.87085 14.0111 4.73963 13.9835 4.61763 13.9311C4.49562 13.8787 4.38528 13.8025 4.29303 13.707L1.29303 10.707C1.10556 10.5195 1.00024 10.2652 1.00024 10C1.00024 9.73485 1.10556 9.48054 1.29303 9.29301L4.29303 6.29301C4.48056 6.10554 4.73487 6.00023 5.00003 6.00023C5.26519 6.00023 5.5195 6.10554 5.70703 6.29301ZM14.293 6.29301C14.4806 6.10554 14.7349 6.00023 15 6.00023C15.2652 6.00023 15.5195 6.10554 15.707 6.29301L18.707 9.29301C18.8945 9.48054 18.9998 9.73485 18.9998 10C18.9998 10.2652 18.8945 10.5195 18.707 10.707L15.707 13.707C15.6148 13.8025 15.5044 13.8787 15.3824 13.9311C15.2604 13.9835 15.1292 14.0111 14.9964 14.0123C14.8637 14.0134 14.732 13.9881 14.6091 13.9378C14.4862 13.8876 14.3745 13.8133 14.2806 13.7194C14.1867 13.6255 14.1125 13.5139 14.0622 13.391C14.0119 13.2681 13.9866 13.1364 13.9878 13.0036C13.9889 12.8708 14.0165 12.7396 14.0689 12.6176C14.1213 12.4956 14.1975 12.3853 14.293 12.293L16.586 10L14.293 7.70701C14.1056 7.51949 14.0002 7.26518 14.0002 7.00001C14.0002 6.73485 14.1056 6.48054 14.293 6.29301Z" fill="white"/>
</svg>
