<svg width="20" height="20" viewBox="0 0 20 20" fill="none" xmlns="http://www.w3.org/2000/svg">
<path fill-rule="evenodd" clip-rule="evenodd" d="M9.504 1.13201C9.65507 1.04572 9.82603 1.00034 10 1.00034C10.174 1.00034 10.3449 1.04572 10.496 1.13201L12.246 2.13201C12.3633 2.1954 12.4667 2.28159 12.5502 2.38553C12.6337 2.48947 12.6955 2.60905 12.7321 2.73724C12.7687 2.86543 12.7793 2.99965 12.7633 3.13199C12.7473 3.26434 12.7049 3.39214 12.6388 3.50789C12.5727 3.62364 12.484 3.725 12.3782 3.806C12.2723 3.887 12.1513 3.94601 12.0222 3.97956C11.8932 4.01312 11.7588 4.02053 11.6269 4.00138C11.4949 3.98222 11.3682 3.93688 11.254 3.86801L10 3.15201L8.74601 3.86801C8.63185 3.93688 8.50509 3.98222 8.37316 4.00138C8.24123 4.02053 8.1068 4.01312 7.97778 3.97956C7.84875 3.94601 7.72774 3.887 7.62186 3.806C7.51598 3.725 7.42736 3.62364 7.36122 3.50789C7.29507 3.39214 7.25274 3.26434 7.23671 3.13199C7.22068 2.99965 7.23128 2.86543 7.26788 2.73724C7.30447 2.60905 7.36633 2.48947 7.44982 2.38553C7.5333 2.28159 7.63672 2.1954 7.754 2.13201L9.504 1.13201ZM5.618 4.50401C5.74948 4.73424 5.78414 5.00725 5.71439 5.26303C5.64463 5.5188 5.47616 5.73641 5.246 5.86801L5.016 6.00001L5.246 6.13201C5.36329 6.1954 5.46671 6.28159 5.55019 6.38553C5.63368 6.48947 5.69554 6.60905 5.73213 6.73724C5.76873 6.86543 5.77933 6.99965 5.7633 7.13199C5.74727 7.26434 5.70494 7.39214 5.63879 7.50789C5.57265 7.62364 5.48403 7.725 5.37815 7.806C5.27227 7.887 5.15126 7.94601 5.02223 7.97956C4.89321 8.01312 4.75878 8.02053 4.62685 8.00138C4.49492 7.98222 4.36816 7.93688 4.254 7.86801L4 7.72301V8.00001C4 8.26523 3.89465 8.51958 3.70711 8.70712C3.51958 8.89466 3.26522 9.00001 3 9.00001C2.73479 9.00001 2.48043 8.89466 2.2929 8.70712C2.10536 8.51958 2 8.26523 2 8.00001V6.00001C1.99945 5.82037 2.04748 5.64393 2.13902 5.48936C2.23057 5.3348 2.36221 5.20786 2.52 5.12201L4.254 4.13201C4.48423 4.00054 4.75724 3.96587 5.01302 4.03563C5.2688 4.10539 5.4864 4.27386 5.618 4.50401ZM14.382 4.50401C14.5136 4.27386 14.7312 4.10539 14.987 4.03563C15.2428 3.96587 15.5158 4.00054 15.746 4.13201L17.479 5.12201C17.6366 5.20823 17.7681 5.33522 17.8597 5.48968C17.9514 5.64414 17.9998 5.8204 18 6.00001V8.00001C18 8.26523 17.8946 8.51958 17.7071 8.70712C17.5196 8.89466 17.2652 9.00001 17 9.00001C16.7348 9.00001 16.4804 8.89466 16.2929 8.70712C16.1054 8.51958 16 8.26523 16 8.00001V7.72301L15.746 7.86801C15.6319 7.93688 15.5051 7.98222 15.3732 8.00138C15.2412 8.02053 15.1068 8.01312 14.9778 7.97956C14.8488 7.94601 14.7277 7.887 14.6219 7.806C14.516 7.725 14.4274 7.62364 14.3612 7.50789C14.2951 7.39214 14.2527 7.26434 14.2367 7.13199C14.2207 6.99965 14.2313 6.86543 14.2679 6.73724C14.3045 6.60905 14.3663 6.48947 14.4498 6.38553C14.5333 6.28159 14.6367 6.1954 14.754 6.13201L14.984 6.00001L14.754 5.86801C14.5239 5.73641 14.3554 5.5188 14.2856 5.26303C14.2159 5.00725 14.2505 4.73424 14.382 4.50401ZM7.382 8.50401C7.51361 8.27386 7.73121 8.10539 7.98699 8.03563C8.24277 7.96587 8.51578 8.00054 8.74601 8.13201L10 8.84801L11.254 8.13201C11.3682 8.06315 11.4949 8.01781 11.6269 7.99865C11.7588 7.97949 11.8932 7.98691 12.0222 8.02046C12.1513 8.05402 12.2723 8.11303 12.3782 8.19403C12.484 8.27503 12.5727 8.37639 12.6388 8.49213C12.7049 8.60788 12.7473 8.73569 12.7633 8.86803C12.7793 9.00038 12.7687 9.1346 12.7321 9.26279C12.6955 9.39098 12.6337 9.51056 12.5502 9.6145C12.4667 9.71843 12.3633 9.80463 12.246 9.86801L11 10.58V12C11 12.2652 10.8946 12.5196 10.7071 12.7071C10.5196 12.8947 10.2652 13 10 13C9.73479 13 9.48043 12.8947 9.2929 12.7071C9.10536 12.5196 9 12.2652 9 12V10.58L7.754 9.86801C7.52385 9.73641 7.35538 9.5188 7.28562 9.26303C7.21587 9.00725 7.25053 8.73424 7.382 8.50401ZM3 11C3.26522 11 3.51958 11.1054 3.70711 11.2929C3.89465 11.4804 4 11.7348 4 12V13.42L5.246 14.132C5.36329 14.1954 5.46671 14.2816 5.55019 14.3855C5.63368 14.4895 5.69554 14.609 5.73213 14.7372C5.76873 14.8654 5.77933 14.9996 5.7633 15.132C5.74727 15.2643 5.70494 15.3921 5.63879 15.5079C5.57265 15.6236 5.48403 15.725 5.37815 15.806C5.27227 15.887 5.15126 15.946 5.02223 15.9796C4.89321 16.0131 4.75878 16.0205 4.62685 16.0014C4.49492 15.9822 4.36816 15.9369 4.254 15.868L2.504 14.868C2.35095 14.7806 2.22372 14.6543 2.13522 14.5018C2.04671 14.3494 2.00006 14.1763 2 14V12C2 11.7348 2.10536 11.4804 2.2929 11.2929C2.48043 11.1054 2.73479 11 3 11ZM17 11C17.2652 11 17.5196 11.1054 17.7071 11.2929C17.8946 11.4804 18 11.7348 18 12V14C17.9999 14.1763 17.9533 14.3494 17.8648 14.5018C17.7763 14.6543 17.6491 14.7806 17.496 14.868L15.746 15.868C15.6319 15.9369 15.5051 15.9822 15.3732 16.0014C15.2412 16.0205 15.1068 16.0131 14.9778 15.9796C14.8488 15.946 14.7277 15.887 14.6219 15.806C14.516 15.725 14.4274 15.6236 14.3612 15.5079C14.2951 15.3921 14.2527 15.2643 14.2367 15.132C14.2207 14.9996 14.2313 14.8654 14.2679 14.7372C14.3045 14.609 14.3663 14.4895 14.4498 14.3855C14.5333 14.2816 14.6367 14.1954 14.754 14.132L16 13.42V12C16 11.7348 16.1054 11.4804 16.2929 11.2929C16.4804 11.1054 16.7348 11 17 11ZM7.382 16.504C7.51361 16.2739 7.73121 16.1054 7.98699 16.0356C8.24277 15.9659 8.51578 16.0005 8.74601 16.132L9 16.277V16C9 15.7348 9.10536 15.4804 9.2929 15.2929C9.48043 15.1054 9.73479 15 10 15C10.2652 15 10.5196 15.1054 10.7071 15.2929C10.8946 15.4804 11 15.7348 11 16V16.277L11.254 16.132C11.3682 16.0632 11.4949 16.0178 11.6269 15.9987C11.7588 15.9795 11.8932 15.9869 12.0222 16.0205C12.1513 16.054 12.2723 16.113 12.3782 16.194C12.484 16.275 12.5727 16.3764 12.6388 16.4921C12.7049 16.6079 12.7473 16.7357 12.7633 16.868C12.7793 17.0004 12.7687 17.1346 12.7321 17.2628C12.6955 17.391 12.6337 17.5106 12.5502 17.6145C12.4667 17.7184 12.3633 17.8046 12.246 17.868L10.511 18.86C10.3566 18.9524 10.18 19.0013 10 19.0013C9.82003 19.0013 9.64343 18.9524 9.48901 18.86L7.754 17.868C7.52385 17.7364 7.35538 17.5188 7.28562 17.263C7.21587 17.0072 7.25053 16.7342 7.382 16.504Z" fill="white"/>
</svg>
