<svg width="20" height="20" viewBox="0 0 20 20" fill="none" xmlns="http://www.w3.org/2000/svg">
<path d="M4 4C4 3.46957 4.21071 2.96086 4.58579 2.58579C4.96086 2.21071 5.46957 2 6 2H10.586C11.1164 2.00011 11.625 2.2109 12 2.586L15.414 6C15.7891 6.37499 15.9999 6.88361 16 7.414V16C16 16.5304 15.7893 17.0391 15.4142 17.4142C15.0391 17.7893 14.5304 18 14 18H12.472C13.4938 16.8569 14.0393 15.366 13.9964 13.8334C13.9535 12.3008 13.3255 10.8428 12.2414 9.75864C11.1572 8.6745 9.69917 8.04652 8.16657 8.00363C6.63396 7.96074 5.14308 8.50619 4 9.528V4Z" fill="white"/>
<path fill-rule="evenodd" clip-rule="evenodd" d="M8.00002 10C7.29468 9.9999 6.60186 10.1863 5.9918 10.5403C5.38174 10.8943 4.87614 11.4034 4.52626 12.0158C4.17638 12.6283 3.99467 13.3223 3.99954 14.0276C4.00442 14.733 4.19571 15.4245 4.55402 16.032L3.29302 17.292C3.20011 17.3848 3.1264 17.4951 3.07609 17.6164C3.02578 17.7377 2.99986 17.8678 2.99982 17.9991C2.99977 18.1305 3.0256 18.2606 3.07582 18.3819C3.12604 18.5033 3.19968 18.6136 3.29252 18.7065C3.38536 18.7994 3.4956 18.8731 3.61693 18.9234C3.73826 18.9737 3.86832 18.9997 3.99967 18.9997C4.13101 18.9997 4.26109 18.9739 4.38245 18.9237C4.50382 18.8735 4.61411 18.7998 4.70702 18.707L5.96802 17.446C6.49786 17.7583 7.09259 17.9442 7.70596 17.9892C8.31933 18.0343 8.93484 17.9373 9.50463 17.7058C10.0744 17.4743 10.5832 17.1146 10.9913 16.6545C11.3995 16.1944 11.696 15.6464 11.8579 15.0531C12.0199 14.4598 12.0428 13.8371 11.9249 13.2335C11.8071 12.6298 11.5516 12.0615 11.1784 11.5727C10.8051 11.0838 10.3242 10.6876 9.77299 10.4149C9.22176 10.1421 8.61505 10.0001 8.00002 10ZM6.00002 14C6.00002 13.4696 6.21073 12.9609 6.58581 12.5858C6.96088 12.2107 7.46959 12 8.00002 12C8.53045 12 9.03916 12.2107 9.41423 12.5858C9.78931 12.9609 10 13.4696 10 14C10 14.5304 9.78931 15.0391 9.41423 15.4142C9.03916 15.7893 8.53045 16 8.00002 16C7.46959 16 6.96088 15.7893 6.58581 15.4142C6.21073 15.0391 6.00002 14.5304 6.00002 14Z" fill="white"/>
</svg>
