<svg width="20" height="20" viewBox="0 0 20 20" fill="none" xmlns="http://www.w3.org/2000/svg">
<path fill-rule="evenodd" clip-rule="evenodd" d="M8.25697 3.09898C9.02197 1.73898 10.979 1.73898 11.743 3.09898L17.323 13.019C18.073 14.353 17.11 15.999 15.581 15.999H4.41997C2.88997 15.999 1.92697 14.353 2.67697 13.019L8.25697 3.09898ZM11 13C11 13.2652 10.8946 13.5196 10.7071 13.7071C10.5195 13.8946 10.2652 14 9.99997 14C9.73475 14 9.4804 13.8946 9.29286 13.7071C9.10533 13.5196 8.99997 13.2652 8.99997 13C8.99997 12.7348 9.10533 12.4804 9.29286 12.2929C9.4804 12.1053 9.73475 12 9.99997 12C10.2652 12 10.5195 12.1053 10.7071 12.2929C10.8946 12.4804 11 12.7348 11 13ZM9.99997 4.99998C9.73475 4.99998 9.4804 5.10534 9.29286 5.29287C9.10533 5.48041 8.99997 5.73476 8.99997 5.99998V8.99998C8.99997 9.2652 9.10533 9.51955 9.29286 9.70709C9.4804 9.89462 9.73475 9.99998 9.99997 9.99998C10.2652 9.99998 10.5195 9.89462 10.7071 9.70709C10.8946 9.51955 11 9.2652 11 8.99998V5.99998C11 5.73476 10.8946 5.48041 10.7071 5.29287C10.5195 5.10534 10.2652 4.99998 9.99997 4.99998Z" fill="white"/>
</svg>
