<svg width="20" height="20" viewBox="0 0 20 20" fill="none" xmlns="http://www.w3.org/2000/svg">
<path fill-rule="evenodd" clip-rule="evenodd" d="M3.70704 2.29298C3.51844 2.11082 3.26584 2.01003 3.00364 2.01231C2.74144 2.01458 2.49063 2.11975 2.30522 2.30516C2.11981 2.49057 2.01465 2.74138 2.01237 3.00358C2.01009 3.26578 2.11088 3.51838 2.29304 3.70698L16.293 17.707C16.4816 17.8891 16.7342 17.9899 16.9964 17.9877C17.2586 17.9854 17.5095 17.8802 17.6949 17.6948C17.8803 17.5094 17.9854 17.2586 17.9877 16.9964C17.99 16.7342 17.8892 16.4816 17.707 16.293L16.234 14.82C17.7916 13.5781 18.9433 11.8999 19.542 9.99998C18.268 5.94298 14.478 2.99998 10 2.99998C8.43247 2.99785 6.88654 3.36583 5.48804 4.07398L3.70804 2.29298H3.70704ZM7.96804 6.55298L9.48204 8.06798C9.82113 7.97793 10.1779 7.97853 10.5167 8.06971C10.8555 8.16089 11.1644 8.33946 11.4125 8.58755C11.6606 8.83563 11.8391 9.14452 11.9303 9.48331C12.0215 9.8221 12.0221 10.1789 11.932 10.518L13.446 12.032C13.897 11.268 14.0812 10.3758 13.9697 9.49566C13.8581 8.61554 13.4572 7.79747 12.8299 7.17016C12.2025 6.54284 11.3845 6.14187 10.5044 6.03033C9.62425 5.91878 8.73202 6.10299 7.96804 6.55398V6.55298Z" fill="white"/>
<path d="M12.454 16.697L9.75001 13.992C8.77769 13.9311 7.86103 13.5174 7.17206 12.8286C6.4831 12.1398 6.06918 11.2233 6.00801 10.251L2.33501 6.578C1.49022 7.58402 0.852357 8.74692 0.458008 10C1.73201 14.057 5.52301 17 10 17C10.847 17 11.669 16.895 12.454 16.697Z" fill="white"/>
</svg>
