<svg width="20" height="20" viewBox="0 0 20 20" fill="none" xmlns="http://www.w3.org/2000/svg">
<path fill-rule="evenodd" clip-rule="evenodd" d="M6.62501 2.65501C7.99134 2.1023 9.4725 1.89361 10.9384 2.04728C12.4042 2.20095 13.8099 2.71227 15.0319 3.53632C16.2539 4.36037 17.2548 5.47193 17.9467 6.77332C18.6386 8.07472 19.0003 9.52612 19 11C19 11.2652 18.8947 11.5196 18.7071 11.7071C18.5196 11.8947 18.2652 12 18 12C17.7348 12 17.4804 11.8947 17.2929 11.7071C17.1054 11.5196 17 11.2652 17 11C17.0005 9.85353 16.7193 8.72448 16.1813 7.7121C15.6432 6.69971 14.8648 5.83497 13.9143 5.19388C12.9638 4.55279 11.8704 4.15496 10.7302 4.03537C9.58997 3.91578 8.43782 4.07808 7.37501 4.50801C7.25247 4.56211 7.12032 4.59105 6.98639 4.59309C6.85245 4.59514 6.71948 4.57026 6.59535 4.51993C6.47121 4.4696 6.35846 4.39484 6.26377 4.3001C6.16909 4.20536 6.0944 4.09256 6.04415 3.96839C5.99389 3.84423 5.96909 3.71124 5.97122 3.57731C5.97335 3.44338 6.00237 3.31124 6.05655 3.18874C6.11072 3.06624 6.18896 2.95587 6.28661 2.86418C6.38426 2.7725 6.49934 2.70137 6.62501 2.65501ZM4.66201 4.95901C4.86071 5.1345 4.9816 5.38171 4.9981 5.64629C5.0146 5.91088 4.92536 6.17119 4.75001 6.37001C3.61987 7.64727 2.99725 9.29455 3.00001 11C3.00001 11.2652 2.89465 11.5196 2.70711 11.7071C2.51958 11.8947 2.26522 12 2.00001 12C1.73479 12 1.48044 11.8947 1.2929 11.7071C1.10536 11.5196 1.00001 11.2652 1.00001 11C0.99722 8.80737 1.79764 6.68965 3.25001 5.04701C3.33691 4.94847 3.44239 4.86803 3.5604 4.81028C3.67841 4.75253 3.80664 4.71859 3.93777 4.71042C4.0689 4.70225 4.20036 4.72 4.32463 4.76265C4.44889 4.8053 4.56354 4.87203 4.66201 4.95901Z" fill="white"/>
<path fill-rule="evenodd" clip-rule="evenodd" d="M5.00001 11C5.00001 9.67392 5.5268 8.40215 6.46448 7.46447C7.40216 6.52678 8.67393 6 10 6C11.3261 6 12.5979 6.52678 13.5355 7.46447C14.4732 8.40215 15 9.67392 15 11C15 11.2652 14.8947 11.5196 14.7071 11.7071C14.5196 11.8946 14.2652 12 14 12C13.7348 12 13.4804 11.8946 13.2929 11.7071C13.1054 11.5196 13 11.2652 13 11C13 10.2044 12.6839 9.44129 12.1213 8.87868C11.5587 8.31607 10.7957 8 10 8C9.20436 8 8.4413 8.31607 7.87869 8.87868C7.31608 9.44129 7.00001 10.2044 7.00001 11C7.00001 12.677 6.65501 14.276 6.03201 15.729C5.92738 15.9727 5.73022 16.1649 5.48389 16.2633C5.23756 16.3616 4.96224 16.3581 4.71851 16.2535C4.47478 16.1489 4.28259 15.9517 4.18423 15.7054C4.08586 15.459 4.08938 15.1837 4.19401 14.94C4.72768 13.6951 5.00193 12.3545 5.00001 11ZM13.921 13.012C14.0508 13.0326 14.1752 13.0785 14.2872 13.1472C14.3992 13.2159 14.4966 13.306 14.5738 13.4123C14.651 13.5186 14.7064 13.6391 14.737 13.7669C14.7676 13.8947 14.7727 14.0272 14.752 14.157C14.6216 14.9796 14.4396 15.7932 14.207 16.593C14.1728 16.7219 14.1133 16.8426 14.0318 16.9481C13.9502 17.0536 13.8485 17.1417 13.7324 17.2073C13.6164 17.2729 13.4883 17.3146 13.3559 17.33C13.2235 17.3454 13.0893 17.3342 12.9613 17.297C12.8333 17.2598 12.714 17.1973 12.6105 17.1134C12.507 17.0294 12.4213 16.9256 12.3584 16.808C12.2956 16.6904 12.2569 16.5615 12.2447 16.4287C12.2324 16.296 12.2468 16.1621 12.287 16.035C12.494 15.322 12.658 14.59 12.777 13.843C12.8188 13.5813 12.9628 13.3469 13.1773 13.1913C13.3918 13.0356 13.6593 12.9715 13.921 13.013V13.012Z" fill="white"/>
<path fill-rule="evenodd" clip-rule="evenodd" d="M9.99999 10C10.2652 10 10.5196 10.1054 10.7071 10.2929C10.8946 10.4804 11 10.7348 11 11C11 13.236 10.54 15.368 9.70999 17.304C9.65818 17.4247 9.58311 17.534 9.48907 17.6257C9.39502 17.7173 9.28384 17.7896 9.16187 17.8383C9.0399 17.887 8.90953 17.9112 8.7782 17.9095C8.64688 17.9078 8.51717 17.8803 8.39649 17.8285C8.2758 17.7767 8.16651 17.7016 8.07483 17.6076C7.98316 17.5135 7.91091 17.4023 7.8622 17.2804C7.8135 17.1584 7.7893 17.028 7.79098 16.8967C7.79265 16.7654 7.82018 16.6357 7.87199 16.515C8.61879 14.7724 9.0026 12.8959 8.99999 11C8.99999 10.7348 9.10535 10.4804 9.29288 10.2929C9.48042 10.1054 9.73477 10 9.99999 10Z" fill="white"/>
</svg>
