<svg width="20" height="20" viewBox="0 0 20 20" fill="none" xmlns="http://www.w3.org/2000/svg">
<path fill-rule="evenodd" clip-rule="evenodd" d="M10.496 2.13198C10.3449 2.04569 10.174 2.00031 10 2.00031C9.82603 2.00031 9.65506 2.04569 9.504 2.13198L2.504 6.13198C2.31267 6.24144 2.16287 6.41104 2.07788 6.61442C1.99289 6.81781 1.97749 7.04357 2.03405 7.25661C2.09062 7.46966 2.216 7.65804 2.39068 7.79247C2.56537 7.92691 2.77957 7.99986 3 7.99998V15C2.73478 15 2.48043 15.1053 2.29289 15.2929C2.10536 15.4804 2 15.7348 2 16C2 16.2652 2.10536 16.5196 2.29289 16.7071C2.48043 16.8946 2.73478 17 3 17H17C17.2652 17 17.5196 16.8946 17.7071 16.7071C17.8946 16.5196 18 16.2652 18 16C18 15.7348 17.8946 15.4804 17.7071 15.2929C17.5196 15.1053 17.2652 15 17 15V7.99998C17.2204 7.99986 17.4346 7.92691 17.6093 7.79247C17.784 7.65804 17.9094 7.46966 17.9659 7.25661C18.0225 7.04357 18.0071 6.81781 17.9221 6.61442C17.8371 6.41104 17.6873 6.24144 17.496 6.13198L10.496 2.13198ZM6 8.99998C5.73478 8.99998 5.48043 9.10534 5.29289 9.29288C5.10536 9.48041 5 9.73477 5 9.99998V13C5 13.2652 5.10536 13.5196 5.29289 13.7071C5.48043 13.8946 5.73478 14 6 14C6.26522 14 6.51957 13.8946 6.70711 13.7071C6.89464 13.5196 7 13.2652 7 13V9.99998C7 9.73477 6.89464 9.48041 6.70711 9.29288C6.51957 9.10534 6.26522 8.99998 6 8.99998ZM9 9.99998C9 9.73477 9.10536 9.48041 9.29289 9.29288C9.48043 9.10534 9.73478 8.99998 10 8.99998C10.2652 8.99998 10.5196 9.10534 10.7071 9.29288C10.8946 9.48041 11 9.73477 11 9.99998V13C11 13.2652 10.8946 13.5196 10.7071 13.7071C10.5196 13.8946 10.2652 14 10 14C9.73478 14 9.48043 13.8946 9.29289 13.7071C9.10536 13.5196 9 13.2652 9 13V9.99998ZM14 8.99998C13.7348 8.99998 13.4804 9.10534 13.2929 9.29288C13.1054 9.48041 13 9.73477 13 9.99998V13C13 13.2652 13.1054 13.5196 13.2929 13.7071C13.4804 13.8946 13.7348 14 14 14C14.2652 14 14.5196 13.8946 14.7071 13.7071C14.8946 13.5196 15 13.2652 15 13V9.99998C15 9.73477 14.8946 9.48041 14.7071 9.29288C14.5196 9.10534 14.2652 8.99998 14 8.99998Z" fill="white"/>
</svg>
