<svg width="20" height="20" viewBox="0 0 20 20" fill="none" xmlns="http://www.w3.org/2000/svg">
<path fill-rule="evenodd" clip-rule="evenodd" d="M11.3 1.04602C11.503 1.10986 11.6804 1.2368 11.8063 1.40837C11.9322 1.57995 12 1.78721 12 2.00002V7.00002H16C16.1829 6.99994 16.3624 7.05003 16.5188 7.14484C16.6752 7.23965 16.8027 7.37556 16.8872 7.53776C16.9718 7.69996 17.0102 7.88225 16.9984 8.06478C16.9865 8.24732 16.9248 8.4231 16.82 8.57302L9.82002 18.573C9.69819 18.7476 9.52385 18.8787 9.32236 18.9473C9.12087 19.0159 8.90274 19.0184 8.69971 18.9545C8.49669 18.8906 8.31935 18.7635 8.19351 18.5919C8.06767 18.4202 7.99988 18.2129 8.00002 18V13H4.00002C3.8171 13.0001 3.63766 12.95 3.48124 12.8552C3.32481 12.7604 3.19738 12.6245 3.11283 12.4623C3.02827 12.3001 2.98983 12.1178 3.00167 11.9353C3.01352 11.7527 3.07521 11.5769 3.18002 11.427L10.18 1.42702C10.302 1.2528 10.4764 1.12203 10.6778 1.05369C10.8792 0.985356 11.0972 0.983018 11.3 1.04702V1.04602Z" fill="white"/>
</svg>
