<svg width="20" height="20" viewBox="0 0 20 20" fill="none" xmlns="http://www.w3.org/2000/svg">
<path fill-rule="evenodd" clip-rule="evenodd" d="M12.586 4.58598C12.7705 4.39496 12.9912 4.2426 13.2352 4.13778C13.4792 4.03296 13.7417 3.97779 14.0072 3.97548C14.2728 3.97317 14.5361 4.02378 14.7819 4.12434C15.0277 4.2249 15.251 4.37341 15.4388 4.56119C15.6266 4.74898 15.7751 4.97228 15.8757 5.21807C15.9762 5.46387 16.0268 5.72722 16.0245 5.99278C16.0222 6.25834 15.967 6.52078 15.8622 6.76479C15.7574 7.0088 15.605 7.22949 15.414 7.41398L12.414 10.414C12.039 10.7889 11.5303 10.9996 11 10.9996C10.4697 10.9996 9.96108 10.7889 9.58602 10.414C9.39742 10.2318 9.14482 10.131 8.88262 10.1333C8.62042 10.1356 8.36961 10.2408 8.1842 10.4262C7.99879 10.6116 7.89362 10.8624 7.89135 11.1246C7.88907 11.3868 7.98986 11.6394 8.17202 11.828C8.92213 12.5779 9.93936 12.9991 11 12.9991C12.0607 12.9991 13.0779 12.5779 13.828 11.828L16.828 8.82798C17.5567 8.07357 17.9598 7.06316 17.9507 6.01438C17.9416 4.96559 17.5209 3.96234 16.7793 3.22071C16.0377 2.47907 15.0344 2.0584 13.9856 2.04928C12.9368 2.04017 11.9264 2.44335 11.172 3.17198L9.67202 4.67198C9.57651 4.76423 9.50033 4.87457 9.44792 4.99658C9.39551 5.11858 9.36792 5.2498 9.36677 5.38258C9.36562 5.51536 9.39092 5.64704 9.4412 5.76993C9.49148 5.89283 9.56573 6.00448 9.65962 6.09838C9.75352 6.19227 9.86517 6.26652 9.98806 6.3168C10.111 6.36708 10.2426 6.39239 10.3754 6.39123C10.5082 6.39008 10.6394 6.36249 10.7614 6.31008C10.8834 6.25767 10.9938 6.18149 11.086 6.08598L12.586 4.58598ZM7.58602 9.58598C7.96107 9.21104 8.46969 9.00041 9.00002 9.00041C9.53035 9.00041 10.039 9.21104 10.414 9.58598C10.5063 9.68149 10.6166 9.75767 10.7386 9.81008C10.8606 9.86249 10.9918 9.89008 11.1246 9.89123C11.2574 9.89239 11.3891 9.86708 11.512 9.8168C11.6349 9.76652 11.7465 9.69227 11.8404 9.59838C11.9343 9.50448 12.0086 9.39283 12.0588 9.26993C12.1091 9.14704 12.1344 9.01536 12.1333 8.88258C12.1321 8.7498 12.1045 8.61858 12.0521 8.49658C11.9997 8.37457 11.9235 8.26423 11.828 8.17198C11.0779 7.4221 10.0607 7.00083 9.00002 7.00083C7.93936 7.00083 6.92213 7.4221 6.17202 8.17198L3.17202 11.172C2.78998 11.541 2.48525 11.9823 2.27561 12.4704C2.06598 12.9584 1.95563 13.4833 1.95102 14.0144C1.9464 14.5455 2.04761 15.0722 2.24873 15.5638C2.44986 16.0554 2.74687 16.502 3.12244 16.8776C3.49801 17.2531 3.94462 17.5501 4.4362 17.7513C4.92779 17.9524 5.45451 18.0536 5.98562 18.049C6.51674 18.0444 7.04162 17.934 7.52964 17.7244C8.01765 17.5148 8.45903 17.21 8.82802 16.828L10.328 15.328C10.4235 15.2357 10.4997 15.1254 10.5521 15.0034C10.6045 14.8814 10.6321 14.7502 10.6333 14.6174C10.6344 14.4846 10.6091 14.3529 10.5588 14.23C10.5086 14.1071 10.4343 13.9955 10.3404 13.9016C10.2465 13.8077 10.1349 13.7334 10.012 13.6832C9.88908 13.6329 9.7574 13.6076 9.62462 13.6087C9.49184 13.6099 9.36062 13.6375 9.23862 13.6899C9.11661 13.7423 9.00627 13.8185 8.91402 13.914L7.41402 15.414C7.22953 15.605 7.00884 15.7574 6.76483 15.8622C6.52082 15.967 6.25838 16.0222 5.99282 16.0245C5.72726 16.0268 5.4639 15.9762 5.21811 15.8756C4.97232 15.7751 4.74902 15.6266 4.56123 15.4388C4.37344 15.251 4.22494 15.0277 4.12438 14.7819C4.02381 14.5361 3.97321 14.2727 3.97552 14.0072C3.97783 13.7416 4.033 13.4792 4.13782 13.2352C4.24264 12.9912 4.395 12.7705 4.58602 12.586L7.58602 9.58598Z" fill="white"/>
</svg>
