<svg width="20" height="20" viewBox="0 0 20 20" fill="none" xmlns="http://www.w3.org/2000/svg">
<path fill-rule="evenodd" clip-rule="evenodd" d="M2.94 6.41198C2.65235 6.59176 2.41515 6.84175 2.25071 7.13844C2.08627 7.43513 2 7.76876 2 8.10798V16C2 16.5304 2.21071 17.0391 2.58579 17.4142C2.96086 17.7893 3.46957 18 4 18H16C16.5304 18 17.0391 17.7893 17.4142 17.4142C17.7893 17.0391 18 16.5304 18 16V8.10798C18 7.76876 17.9137 7.43513 17.7493 7.13844C17.5848 6.84175 17.3476 6.59176 17.06 6.41198L11.06 2.66198C10.7421 2.46331 10.3748 2.35797 10 2.35797C9.62516 2.35797 9.25786 2.46331 8.94 2.66198L2.94 6.41198ZM5.555 8.83498C5.44574 8.76209 5.32319 8.71144 5.19436 8.68592C5.06553 8.6604 4.93293 8.6605 4.80413 8.68622C4.67534 8.71194 4.55287 8.76278 4.44372 8.83583C4.33457 8.90888 4.24088 9.00272 4.168 9.11198C4.09512 9.22124 4.04447 9.34378 4.01894 9.47262C3.99342 9.60145 3.99352 9.73405 4.01924 9.86284C4.07119 10.123 4.22434 10.3518 4.445 10.499L9.445 13.832C9.60933 13.9416 9.80245 14.0001 10 14.0001C10.1975 14.0001 10.3907 13.9416 10.555 13.832L15.555 10.499C15.7757 10.3518 15.9288 10.123 15.9808 9.86284C16.0327 9.60273 15.9792 9.33264 15.832 9.11198C15.6848 8.89132 15.456 8.73817 15.1959 8.68622C14.9358 8.63427 14.6657 8.68778 14.445 8.83498L10 11.798L5.555 8.83498Z" fill="white"/>
</svg>
