<svg width="20" height="20" viewBox="0 0 20 20" fill="none" xmlns="http://www.w3.org/2000/svg">
<path fill-rule="evenodd" clip-rule="evenodd" d="M12 1.586L8 5.586V18.414L12 14.414V1.586ZM3.707 3.293C3.56715 3.15319 3.38898 3.05798 3.19503 3.01942C3.00108 2.98085 2.80005 3.00065 2.61735 3.07632C2.43465 3.15199 2.27848 3.28013 2.1686 3.44454C2.05871 3.60895 2.00004 3.80225 2 4V14C2.00006 14.2652 2.10545 14.5195 2.293 14.707L6 18.414V5.586L3.707 3.293ZM17.707 5.293L14 1.586V14.414L16.293 16.707C16.4329 16.8468 16.611 16.942 16.805 16.9806C16.9989 17.0191 17.2 16.9993 17.3827 16.9237C17.5654 16.848 17.7215 16.7199 17.8314 16.5555C17.9413 16.391 18 16.1977 18 16V6C17.9999 5.7348 17.8946 5.48049 17.707 5.293Z" fill="white"/>
</svg>
