<svg width="20" height="20" viewBox="0 0 20 20" fill="none" xmlns="http://www.w3.org/2000/svg">
<path d="M14.414 6.99998L17.707 3.70698C17.8892 3.51838 17.99 3.26578 17.9877 3.00358C17.9854 2.74138 17.8802 2.49057 17.6948 2.30516C17.5094 2.11975 17.2586 2.01458 16.9964 2.01231C16.7342 2.01003 16.4816 2.11082 16.293 2.29298L13 5.58598V3.99998C13 3.73476 12.8946 3.48041 12.7071 3.29287C12.5196 3.10534 12.2652 2.99998 12 2.99998C11.7348 2.99998 11.4804 3.10534 11.2929 3.29287C11.1054 3.48041 11 3.73476 11 3.99998V8.00298C11 8.20035 11.0587 8.39327 11.1685 8.55725C11.2784 8.72123 11.4345 8.84887 11.617 8.92398C11.7384 8.97431 11.8686 9.00014 12 8.99998H16C16.2652 8.99998 16.5196 8.89462 16.7071 8.70709C16.8946 8.51955 17 8.2652 17 7.99998C17 7.73476 16.8946 7.48041 16.7071 7.29287C16.5196 7.10534 16.2652 6.99998 16 6.99998H14.414Z" fill="white"/>
<path d="M2 3C2 2.73478 2.10536 2.48043 2.29289 2.29289C2.48043 2.10536 2.73478 2 3 2H5.153C5.38971 2.00011 5.6187 2.08418 5.79924 2.23726C5.97979 2.39034 6.10018 2.6025 6.139 2.836L6.879 7.271C6.91436 7.48222 6.88097 7.69921 6.78376 7.89003C6.68655 8.08085 6.53065 8.23543 6.339 8.331L4.791 9.104C5.34611 10.4797 6.17283 11.7293 7.22178 12.7782C8.27072 13.8272 9.52035 14.6539 10.896 15.209L11.67 13.661C11.7655 13.4695 11.9199 13.3138 12.1106 13.2166C12.3012 13.1194 12.5179 13.0859 12.729 13.121L17.164 13.861C17.3975 13.8998 17.6097 14.0202 17.7627 14.2008C17.9158 14.3813 17.9999 14.6103 18 14.847V17C18 17.2652 17.8946 17.5196 17.7071 17.7071C17.5196 17.8946 17.2652 18 17 18H15C7.82 18 2 12.18 2 5V3Z" fill="white"/>
</svg>
