<svg width="20" height="20" viewBox="0 0 20 20" fill="none" xmlns="http://www.w3.org/2000/svg">
<path d="M4.99998 12C4.99998 12.2652 5.10534 12.5196 5.29287 12.7071C5.48041 12.8947 5.73476 13 5.99998 13C6.2652 13 6.51955 12.8947 6.70709 12.7071C6.89462 12.5196 6.99998 12.2652 6.99998 12V6.41403L8.29298 7.70703C8.48158 7.88919 8.73418 7.98998 8.99638 7.9877C9.25858 7.98543 9.50939 7.88026 9.6948 7.69485C9.88021 7.50944 9.98538 7.25863 9.98765 6.99643C9.98993 6.73424 9.88914 6.48163 9.70698 6.29303L6.70698 3.29303C6.51945 3.10556 6.26514 3.00024 5.99998 3.00024C5.73482 3.00024 5.48051 3.10556 5.29298 3.29303L2.29298 6.29303C2.11082 6.48163 2.01003 6.73424 2.01231 6.99643C2.01458 7.25863 2.11975 7.50944 2.30516 7.69485C2.49057 7.88026 2.74138 7.98543 3.00358 7.9877C3.26578 7.98998 3.51838 7.88919 3.70698 7.70703L4.99998 6.41403V12ZM15 8.00003C15 7.73481 14.8946 7.48046 14.7071 7.29292C14.5196 7.10539 14.2652 7.00003 14 7.00003C13.7348 7.00003 13.4804 7.10539 13.2929 7.29292C13.1053 7.48046 13 7.73481 13 8.00003V13.586L11.707 12.293C11.5184 12.1109 11.2658 12.0101 11.0036 12.0124C10.7414 12.0146 10.4906 12.1198 10.3052 12.3052C10.1198 12.4906 10.0146 12.7414 10.0123 13.0036C10.01 13.2658 10.1108 13.5184 10.293 13.707L13.293 16.707C13.4805 16.8945 13.7348 16.9998 14 16.9998C14.2651 16.9998 14.5195 16.8945 14.707 16.707L17.707 13.707C17.8891 13.5184 17.9899 13.2658 17.9877 13.0036C17.9854 12.7414 17.8802 12.4906 17.6948 12.3052C17.5094 12.1198 17.2586 12.0146 16.9964 12.0124C16.7342 12.0101 16.4816 12.1109 16.293 12.293L15 13.586V8.00003Z" fill="white"/>
</svg>
