<svg width="20" height="20" viewBox="0 0 20 20" fill="none" xmlns="http://www.w3.org/2000/svg">
<path fill-rule="evenodd" clip-rule="evenodd" d="M12 7C11.7348 7 11.4805 6.89464 11.2929 6.70711C11.1054 6.51957 11 6.26522 11 6C11 5.73478 11.1054 5.48043 11.2929 5.29289C11.4805 5.10536 11.7348 5 12 5H17C17.2653 5 17.5196 5.10536 17.7071 5.29289C17.8947 5.48043 18 5.73478 18 6V11C18 11.2652 17.8947 11.5196 17.7071 11.7071C17.5196 11.8946 17.2653 12 17 12C16.7348 12 16.4805 11.8946 16.2929 11.7071C16.1054 11.5196 16 11.2652 16 11V8.414L11.707 12.707C11.5195 12.8945 11.2652 12.9998 11 12.9998C10.7349 12.9998 10.4806 12.8945 10.293 12.707L8.00004 10.414L3.70704 14.707C3.51844 14.8892 3.26584 14.99 3.00364 14.9877C2.74144 14.9854 2.49063 14.8802 2.30522 14.6948C2.11981 14.5094 2.01465 14.2586 2.01237 13.9964C2.01009 13.7342 2.11088 13.4816 2.29304 13.293L7.29304 8.293C7.48057 8.10553 7.73488 8.00021 8.00004 8.00021C8.26521 8.00021 8.51951 8.10553 8.70704 8.293L11 10.586L14.586 7H12Z" fill="white"/>
</svg>
