<svg width="20" height="20" viewBox="0 0 20 20" fill="none" xmlns="http://www.w3.org/2000/svg">
<path fill-rule="evenodd" clip-rule="evenodd" d="M12 13C11.7348 13 11.4804 13.1054 11.2929 13.2929C11.1053 13.4805 11 13.7348 11 14C11 14.2653 11.1053 14.5196 11.2929 14.7071C11.4804 14.8947 11.7348 15 12 15H17C17.2652 15 17.5196 14.8947 17.7071 14.7071C17.8946 14.5196 18 14.2653 18 14V9.00004C18 8.73482 17.8946 8.48047 17.7071 8.29293C17.5196 8.1054 17.2652 8.00004 17 8.00004C16.7348 8.00004 16.4804 8.1054 16.2929 8.29293C16.1053 8.48047 16 8.73482 16 9.00004V11.586L11.707 7.29304C11.5195 7.10557 11.2651 7.00025 11 7.00025C10.7348 7.00025 10.4805 7.10557 10.293 7.29304L7.99998 9.58604L3.70698 5.29304C3.51838 5.11088 3.26578 5.01009 3.00358 5.01237C2.74138 5.01465 2.49057 5.11981 2.30516 5.30522C2.11975 5.49063 2.01458 5.74144 2.01231 6.00364C2.01003 6.26584 2.11082 6.51844 2.29298 6.70704L7.29298 11.707C7.48051 11.8945 7.73482 11.9998 7.99998 11.9998C8.26514 11.9998 8.51945 11.8945 8.70698 11.707L11 9.41404L14.586 13H12Z" fill="white"/>
</svg>
